<svg xmlns="http://www.w3.org/2000/svg" version="1.1" xmlns:xlink="http://www.w3.org/1999/xlink" xmlns:svgjs="http://svgjs.dev/svgjs" width="1500" height="1576" viewBox="0 0 1500 1576"><g transform="matrix(1,0,0,1,-1.9048976667406805,-2.5419354838710433)"><svg viewBox="0 0 236 248" data-background-color="#f8fafc" preserveAspectRatio="xMidYMid meet" height="1576" width="1500" xmlns="http://www.w3.org/2000/svg" xmlns:xlink="http://www.w3.org/1999/xlink"><g id="tight-bounds" transform="matrix(1,0,0,1,0.29970389956719146,0.4000000000000057)"><svg viewBox="0 0 235.4005922008656 247.2" height="247.2" width="235.4005922008656"><g><svg viewBox="0 0 395.52 415.3453612239489" height="247.2" width="235.4005922008656"><g transform="matrix(1,0,0,1,0,256.7000960658905)"><svg viewBox="0 0 395.52 158.64526515805838" height="158.64526515805838" width="395.52"><g id="textblocktransform"><svg viewBox="0 0 395.52 158.64526515805838" height="158.64526515805838" width="395.52" id="textblock"><g><svg viewBox="0 0 395.52 158.64526515805838" height="158.64526515805838" width="395.52"><g transform="matrix(1,0,0,1,0,0)"><svg width="395.52" viewBox="0.66 -42.94 142.59 55.949999999999996" height="158.64526515805838" data-palette-color="#0023ff"><path d="M29.79-39.79L29.79-39.79 25.12-32.08Q25.05-33.01 24.78-34.22 24.51-35.42 23.89-36.5 23.27-37.57 22.18-38.32 21.09-39.06 19.41-39.06L19.41-39.06Q17.68-39.06 16.63-38.38 15.58-37.7 15.01-36.33 14.45-34.96 14.26-32.93 14.06-30.91 14.06-28.22L14.06-28.22 22.61-28.22 22.61-24.95 14.06-24.95 14.06 0 5.79 0 5.79-24.95 0.66-24.95 0.66-28.22 5.79-28.22Q5.79-32.1 6.62-34.89 7.45-37.67 9.13-39.47 10.82-41.26 13.37-42.1 15.92-42.94 19.34-42.94L19.34-42.94Q21.39-42.94 23.01-42.66 24.63-42.38 25.89-41.93 27.15-41.48 28.1-40.92 29.05-40.36 29.79-39.79ZM37.62-35.01L37.62-35.01Q37.62-34.08 37.27-33.25 36.91-32.42 36.3-31.81 35.69-31.2 34.86-30.85 34.03-30.49 33.1-30.49L33.1-30.49Q32.18-30.49 31.36-30.85 30.54-31.2 29.93-31.81 29.32-32.42 28.96-33.25 28.61-34.08 28.61-35.01L28.61-35.01Q28.61-35.94 28.96-36.76 29.32-37.57 29.93-38.18 30.54-38.79 31.36-39.15 32.18-39.5 33.1-39.5L33.1-39.5Q34.03-39.5 34.86-39.15 35.69-38.79 36.3-38.18 36.91-37.57 37.27-36.76 37.62-35.94 37.62-35.01ZM37.25-28.17L37.25 0 28.98 0 28.98-28.17 37.25-28.17ZM72.99-16.16L72.99-16.16Q72.99-13.31 72.3-10.21 71.6-7.1 70.36-4.13 69.11-1.15 67.38 1.48 65.64 4.1 63.57 6.01L63.57 6.01 60.47 4.32Q61.13 3.1 61.71 1.59 62.3 0.07 62.78-1.62 63.25-3.32 63.63-5.13 64.01-6.93 64.27-8.7 64.52-10.47 64.66-12.15 64.79-13.82 64.79-15.26L64.79-15.26Q64.79-16.21 64.72-17.3 64.64-18.38 64.41-19.47 64.18-20.56 63.79-21.56 63.4-22.56 62.75-23.32 62.1-24.07 61.19-24.54 60.27-25 59.03-25L59.03-25Q57.81-25 56.86-24.45 55.9-23.9 55.17-23.01 54.44-22.12 53.91-20.97 53.39-19.82 53.06-18.62 52.73-17.41 52.58-16.24 52.44-15.06 52.44-14.14L52.44-14.14 52.44 0 44.16 0 44.16-28.2 47.33-28.2 51.12-21.63Q51.8-23.27 52.83-24.61 53.85-25.95 55.15-26.9 56.44-27.86 58.02-28.37 59.59-28.88 61.42-28.88L61.42-28.88Q64.35-28.88 66.52-27.93 68.7-26.98 70.14-25.28 71.58-23.58 72.29-21.25 72.99-18.92 72.99-16.16ZM87.1-35.01L87.1-35.01Q87.1-34.08 86.75-33.25 86.39-32.42 85.78-31.81 85.17-31.2 84.34-30.85 83.51-30.49 82.59-30.49L82.59-30.49Q81.66-30.49 80.84-30.85 80.02-31.2 79.41-31.81 78.8-32.42 78.45-33.25 78.09-34.08 78.09-35.01L78.09-35.01Q78.09-35.94 78.45-36.76 78.8-37.57 79.41-38.18 80.02-38.79 80.84-39.15 81.66-39.5 82.59-39.5L82.59-39.5Q83.51-39.5 84.34-39.15 85.17-38.79 85.78-38.18 86.39-37.57 86.75-36.76 87.1-35.94 87.1-35.01ZM86.74-28.17L86.74 0 78.46 0 78.46-28.17 86.74-28.17ZM119.99-39.79L119.99-39.79 115.32-32.08Q115.25-33.01 114.98-34.22 114.71-35.42 114.09-36.5 113.47-37.57 112.38-38.32 111.29-39.06 109.61-39.06L109.61-39.06Q107.88-39.06 106.83-38.38 105.78-37.7 105.21-36.33 104.65-34.96 104.46-32.93 104.26-30.91 104.26-28.22L104.26-28.22 112.81-28.22 112.81-24.95 104.26-24.95 104.26 0 95.99 0 95.99-24.95 90.86-24.95 90.86-28.22 95.99-28.22Q95.99-32.1 96.82-34.89 97.65-37.67 99.33-39.47 101.02-41.26 103.57-42.1 106.12-42.94 109.54-42.94L109.54-42.94Q111.59-42.94 113.21-42.66 114.83-42.38 116.09-41.93 117.35-41.48 118.3-40.92 119.25-40.36 119.99-39.79ZM137.54-28.2L143.25-28.2 133-3.39Q131.24 0.85 129.08 5.02 126.92 9.18 124.4 13.01L124.4 13.01 121.18 11.06Q121.79 9.96 122.62 8.52 123.45 7.08 124.26 5.54 125.06 4 125.74 2.5 126.43 1 126.79-0.24L126.79-0.24 114.47-28.2 122.72-28.2 131.09-9.13 137.54-28.2Z" opacity="1" transform="matrix(1,0,0,1,0,0)" fill="#0023ff" class="wordmark-text-0" data-fill-palette-color="primary" id="text-0"></path></svg></g></svg></g></svg></g></svg></g><g transform="matrix(1,0,0,1,100.05772573279954,0)"><svg viewBox="0 0 195.4045485344009 219.2477564484367" height="219.2477564484367" width="195.4045485344009"><g><svg xmlns="http://www.w3.org/2000/svg" data-name="Layer 1" viewBox="21.48 18 57.03999999999999 64.0000047164571" x="0" y="0" height="219.2477564484367" width="195.4045485344009" class="icon-icon-0" data-fill-palette-color="accent" id="icon-0"><path d="M78.52 51.17V62.91A2 2 0 0 1 76.52 64.91H73.1A22 22 0 0 1 70.17 70.23L71.36 72.74A6 6 0 0 1 66.36 82 6 6 0 0 1 61.56 79.61C61.51 79.53 61.46 79.46 61.42 79.38L60.42 77.64A22.1 22.1 0 0 1 45 77.82L44.27 79.19A1.2 1.2 0 0 1 44.1 79.46 6 6 0 0 1 34.24 72.63L35.09 70.63A22.3 22.3 0 0 1 31.68 64.45H36A18.2 18.2 0 0 0 38.9 69 2 2 0 0 1 39.24 71.12L37.84 74.38A2.3 2.3 0 0 1 37.65 74.72 2 2 0 0 0 37.33 76.22 2 2 0 0 0 38.17 77.5 2 2 0 0 0 40.81 77.16L42.3 74.35A2 2 0 0 1 44.91 73.47 18 18 0 0 0 60.38 73.29 2 2 0 0 1 63 74.1L64.79 77.29A2 2 0 0 0 68.29 76.36 2 2 0 0 0 67.97 74.86 2 2 0 0 1 67.81 74.59L66 70.83A2 2 0 0 1 66.27 68.68 18 18 0 0 0 69.74 62.32 2 2 0 0 1 71.65 60.91H74.5V53.17H71.67A2 2 0 0 1 69.76 51.75 18.1 18.1 0 0 0 66.22 45.32V45.51A2 2 0 1 1 62.31 44.68 32.1 32.1 0 0 0 62.31 34.89C59.93 36.5 56.43 39.14 54.58 41.89A2 2 0 1 1 51.27 39.66C51.42 39.43 51.59 39.21 51.76 38.98A17.9 17.9 0 0 0 44.83 40.68 14.1 14.1 0 0 0 42 37.92L42.21 37.51A22 22 0 0 1 52.46 35 22 22 0 0 1 55.37 35.22 50 50 0 0 1 62.83 29.89 2 2 0 0 1 65.83 31.23 51 51 0 0 1 66.72 40.23 22.1 22.1 0 0 1 73.15 49.23H76.57A2 2 0 0 1 78.52 51.17M30.31 60.48V57.27C25.31 56.41 21.48 52.41 21.48 47.6V45.6H25.48V47.6A6 6 0 0 0 30.31 53.19V41.11C25.97 39.32 21.48 37.11 21.48 31.92 21.48 27.11 25.29 23.11 30.31 22.25V18H34.31V22.25C39.31 23.11 43.15 27.11 43.15 31.92V33.92H39.15V31.92A6.06 6.06 0 0 0 34.31 26.33V38.41C38.66 40.2 43.15 42.41 43.15 47.6 43.15 52.41 39.33 56.41 34.31 57.27V60.48ZM34.31 53.19A6.06 6.06 0 0 0 39.15 47.6C39.15 45.38 37.36 44.12 34.31 42.76ZM30.31 36.76V26.33A6 6 0 0 0 25.48 31.92C25.48 34.13 27.26 35.4 30.31 36.76" fill="#0023ff" data-fill-palette-color="accent"></path></svg></g></svg></g><g></g></svg></g><defs></defs></svg><rect width="235.4005922008656" height="247.2" fill="none" stroke="none" visibility="hidden"></rect></g></svg></g></svg>